<svg xmlns="http://www.w3.org/2000/svg" viewBox="0 0 60 34" fill="white">
    <filter id="blur">
        <feGaussianBlur stdDeviation="2"/>
    </filter>
    <defs>
        <clipPath id="clip">
            <path d="M60 33.5 c-2.417 0-4.833-.001-7.25-1.209-2.417-1.208-4.832-3.625-6.041-7.25-1.208-3.625-1.21-8.457-2.418-12.082-1.208-3.625-3.624-6.042-6.041-7.25C35.833 4.5 33.417 4.5 31 4.5h-2c-2.417 0-4.833 0-7.25 1.209-2.417 1.208-4.833 3.625-6.041 7.25-1.208 3.625-1.21 8.457-2.418 12.082-1.209 3.625-3.624 6.042-6.041 7.25C4.833 33.499 2.417 33.5 0 33.5 V0 H60 Z"/>
        </clipPath>
    </defs>
    <path filter="url(#blur)" clip-path="url(#clip)" d="M 60,34 C 57.583,34 55.167,33.999 52.75,32.791 50.333,31.583 47.918,29.166 46.709,25.541 45.501,21.416 45.499,16.584 44.291,12.959 43.083,9.334 42.667,10.917 40.25,9.709 37.833,8.5 33.417,8.5 31,8.5 h -2 c -2.417,0 -6.833,0 -9.25,1.209 -2.417,1.208 -2.833,-0.375 -4.041,3.25 -1.208,3.625 -1.21,8.457 -2.418,12.082 -1.209,3.625 -3.624,6.042 -6.041,7.25 C 4.833,33.499 2.417,34 0,34 Z"/>
</svg>
