<svg xmlns="http://www.w3.org/2000/svg" viewBox="0 0 24 24">
    <path fill="white" d="M10.5 6A4.5 4.5 0 0 0 6 10.5v5a2.5 2.5 0 0 1-1-2v-3A5.5 5.5 0 0 1 10.5 5h3c.818 0 1.544.393 2 1zm-2.439 4.395A3 3 0 0 1 11 8h6.5a2.5 2.5 0 0 0-2-1H11a4 4 0 0 0-4 4v4.5c0 .818.393 1.544 1 2V11q0-.312.061-.605M9 11.5A2.5 2.5 0 0 1 11.5 9h5a2.5 2.5 0 0 1 2.5 2.5v5a2.5 2.5 0 0 1-2.5 2.5h-5A2.5 2.5 0 0 1 9 16.5zm2.5-1.5a1.5 1.5 0 0 0-1.5 1.5v5a1.5 1.5 0 0 0 1.5 1.5h5a1.5 1.5 0 0 0 1.5-1.5v-5a1.5 1.5 0 0 0-1.5-1.5z"/>
</svg>
