<svg xmlns="http://www.w3.org/2000/svg" viewBox="0 0 28 22">
    <path fill="white" d="M11.24 12.98H7.75l-.81 2.83H5.05L8.44 5.35h2.18l3.39 10.46h-1.97zm-.41-1.46-.37-1.28c-.15-.55-.31-1.12-.47-1.71-.16-.59-.31-1.17-.46-1.74h-.06c-.15.58-.31 1.17-.46 1.75-.15.58-.31 1.15-.47 1.7l-.37 1.28zm4.64 2.18c0-.44.1-.83.3-1.16.2-.34.52-.62.96-.86.44-.23 1-.42 1.68-.57.68-.15 1.51-.26 2.48-.32-.03-.45-.19-.82-.48-1.11-.29-.29-.75-.43-1.39-.43-.45 0-.89.08-1.32.25-.43.16-.85.36-1.26.58l-.67-1.23c.48-.28 1.03-.53 1.65-.75.62-.23 1.26-.34 1.93-.34 1.1 0 1.94.29 2.52.87.57.59.86 1.43.86 2.52v4.66h-1.5l-.15-.98h-.05c-.41.32-.87.6-1.38.83-.51.23-1.03.34-1.56.34-.38 0-.74-.05-1.06-.17-.32-.11-.59-.27-.83-.47-.23-.2-.41-.44-.54-.73a2.18 2.18 0 0 1-.19-.93m1.77-.15c0 .36.14.61.41.77.27.16.61.24 1 .24s.78-.09 1.14-.26c.37-.18.74-.41 1.1-.7v-1.66c-.7.05-1.29.12-1.76.21s-.84.21-1.12.35c-.28.14-.47.29-.59.47s-.18.37-.18.58"/>
</svg>
