<svg xmlns="http://www.w3.org/2000/svg" viewBox="0 0 60 34" fill="white">
    <defs>
        <clipPath id="clip">
            <rect x="0" y="0" width="60" height="8"/>
        </clipPath>
    </defs>
    <path clip-path="url(#clip)" d="M 60,34 C 57.583,34 55.167,33.999 52.75,32.791 C 50.333,31.583 47.918,29.166 46.709,25.541 C 45.501,21.916 45.499,17.084 44.291,13.459 C 43.083,9.834 40.667,7.417 38.25,6.209 C 35.833,5 33.417,5 31,5 H 29 C 26.583,5 24.167,5 21.75,6.209 C 19.333,7.417 16.917,9.834 15.709,13.459 C 14.501,17.084 14.499,21.916 13.291,25.541 C 12.082,29.166 9.667,31.583 7.25,32.791 C 4.833,33.999 2.417,34 0,34 Z"/>
</svg>
