<svg xmlns="http://www.w3.org/2000/svg" viewBox="0 0 60 34" fill="white">
    <filter id="blur">
        <feGaussianBlur stdDeviation="2"/>
    </filter>
    <defs>
        <clipPath id="clip">
            <path d="M60 33.5 c-2.417 0-4.833-.001-7.25-1.209-2.417-1.208-4.832-3.625-6.041-7.25-1.208-3.625-1.21-8.457-2.418-12.082-1.208-3.625-3.624-6.042-6.041-7.25C35.833 4.5 33.417 4.5 31 4.5h-2c-2.417 0-4.833 0-7.25 1.209-2.417 1.208-4.833 3.625-6.041 7.25-1.208 3.625-1.21 8.457-2.418 12.082-1.209 3.625-3.624 6.042-6.041 7.25C4.833 33.499 2.417 33.5 0 33.5 V0 H60 Z"/>
        </clipPath>
    </defs>
    <path filter="url(#blur)" clip-path="url(#clip)" d="M60 34 c-2.417 0-4.833-.001-7.25-1.209-2.417-1.208-4.832-3.625-6.041-7.25-1.208-3.625-1.21-8.457-2.418-12.082-1.208-3.625-3.624-6.042-6.041-7.25C35.833 4.5 33.417 4.5 31 4.5h-2c-2.417 0-4.833 0-7.25 1.209-2.417 1.208-4.833 3.625-6.041 7.25-1.208 3.625-1.21 8.457-2.418 12.082-1.209 3.625-3.624 6.042-6.041 7.25C4.833 33.499 2.417 34 0 34 Z"/>
</svg>
