<svg xmlns="http://www.w3.org/2000/svg" viewBox="0 0 42 34" fill="white">
    <filter id="blur">
        <feGaussianBlur stdDeviation="2"/>
    </filter>
    <defs>
        <clipPath id="clip1">
            <rect x="2.5" y="0" width="39.5" height="34"/>
        </clipPath>
        <clipPath id="clip2">
            <path clip-path="url(#clip1)" d="M 0,0 V 34 h 1 a 4 4 0 0 0 4 -4 V 0 H 0"/>
            <path d="M 37,0 V 30 a 4 4 0 0 0 4 4 H 42 V 0 H 37"/>
        </clipPath>
    </defs>
    <path filter="url(#blur)" clip-path="url(#clip2)" d="M 1,34 a 4 4 0 0 0 4 -4 v -17 a 5 5 0 0 1 5 -5 h 22 a 5 5 0 0 1 5 5 v 17 a 4 4 0 0 0 4 4 h -40"/>
</svg>
